<?xml version="1.0" encoding="UTF-8" standalone="no"?>
<!DOCTYPE svg PUBLIC "-//W3C//DTD SVG 1.1//EN"
 "http://www.w3.org/Graphics/SVG/1.1/DTD/svg11.dtd">
<!-- Generated by graphviz version 2.47.0 (20210316.0004)
 -->
<!-- Title: dependencies Pages: 1 -->
<svg width="969pt" height="284pt"
 viewBox="0.00 0.00 969.00 284.00" xmlns="http://www.w3.org/2000/svg" xmlns:xlink="http://www.w3.org/1999/xlink">
<g id="graph0" class="graph" transform="scale(1 1) rotate(0) translate(4 280)">
<title>dependencies</title>
<polygon fill="white" stroke="transparent" points="-4,4 -4,-280 965,-280 965,4 -4,4"/>
<text text-anchor="start" x="459.51" y="-42.4" font-family="Times-12" font-weight="bold" font-size="14.00">Legend</text>
<polygon fill="#ffffb3" stroke="transparent" points="246.5,-10 246.5,-30 266.5,-30 266.5,-10 246.5,-10"/>
<text text-anchor="start" x="270.13" y="-15.4" font-family="Times-12" font-size="14.00"> &#160;Declarations</text>
<polygon fill="#8dd3c7" stroke="transparent" points="359.5,-10 359.5,-30 379.5,-30 379.5,-10 359.5,-10"/>
<text text-anchor="start" x="383.23" y="-15.4" font-family="Times-12" font-size="14.00"> &#160;Module</text>
<polygon fill="#80b1d3" stroke="transparent" points="445.5,-10 445.5,-30 465.5,-30 465.5,-10 445.5,-10"/>
<text text-anchor="start" x="469.28" y="-15.4" font-family="Times-12" font-size="14.00"> &#160;Bootstrap</text>
<polygon fill="#fdb462" stroke="transparent" points="542.5,-10 542.5,-30 562.5,-30 562.5,-10 542.5,-10"/>
<text text-anchor="start" x="566.17" y="-15.4" font-family="Times-12" font-size="14.00"> &#160;Providers</text>
<polygon fill="#fb8072" stroke="transparent" points="638.5,-10 638.5,-30 658.5,-30 658.5,-10 638.5,-10"/>
<text text-anchor="start" x="662.23" y="-15.4" font-family="Times-12" font-size="14.00"> &#160;Exports</text>
<g id="clust1" class="cluster">
<title>cluster_AppModule</title>
<polygon fill="none" stroke="black" stroke-dasharray="1,5" points="8,-70 8,-268 953,-268 953,-70 8,-70"/>
</g>
<g id="clust2" class="cluster">
<title>cluster_AppModule_declarations</title>
<polygon fill="none" stroke="black" points="168,-78 168,-130 945,-130 945,-78 168,-78"/>
</g>
<g id="clust8" class="cluster">
<title>cluster_AppModule_imports</title>
<polygon fill="none" stroke="black" points="16,-78 16,-130 160,-130 160,-78 16,-78"/>
</g>
<g id="clust10" class="cluster">
<title>cluster_AppModule_bootstrap</title>
<polygon fill="none" stroke="black" points="425,-208 425,-260 549,-260 549,-208 425,-208"/>
</g>
<!-- AppComponent -->
<g id="node1" class="node">
<title>AppComponent</title>
<polygon fill="#ffffb3" stroke="black" points="936.94,-122 831.06,-122 831.06,-86 936.94,-86 936.94,-122"/>
<text text-anchor="middle" x="884" y="-99.8" font-family="Times,serif" font-size="14.00">AppComponent</text>
</g>
<!-- AppModule -->
<g id="node6" class="node">
<title>AppModule</title>
<polygon fill="#8dd3c7" stroke="black" points="528.66,-187 525.66,-191 504.66,-191 501.66,-187 445.34,-187 445.34,-151 528.66,-151 528.66,-187"/>
<text text-anchor="middle" x="487" y="-164.8" font-family="Times,serif" font-size="14.00">AppModule</text>
</g>
<!-- AppComponent&#45;&gt;AppModule -->
<g id="edge1" class="edge">
<title>AppComponent&#45;&gt;AppModule</title>
<path fill="none" stroke="black" d="M884,-122.28C884,-143.32 884,-175 884,-175 884,-175 538.74,-175 538.74,-175"/>
<polygon fill="black" stroke="black" points="538.74,-171.5 528.74,-175 538.74,-178.5 538.74,-171.5"/>
</g>
<!-- BookStoreComponent -->
<g id="node2" class="node">
<title>BookStoreComponent</title>
<polygon fill="#ffffb3" stroke="black" points="813.72,-122 672.28,-122 672.28,-86 813.72,-86 813.72,-122"/>
<text text-anchor="middle" x="743" y="-99.8" font-family="Times,serif" font-size="14.00">BookStoreComponent</text>
</g>
<!-- BookStoreComponent&#45;&gt;AppModule -->
<g id="edge2" class="edge">
<title>BookStoreComponent&#45;&gt;AppModule</title>
<path fill="none" stroke="black" d="M743,-122.02C743,-139.37 743,-163 743,-163 743,-163 538.7,-163 538.7,-163"/>
<polygon fill="black" stroke="black" points="538.7,-159.5 528.7,-163 538.7,-166.5 538.7,-159.5"/>
</g>
<!-- LabelCategoryComponent -->
<g id="node3" class="node">
<title>LabelCategoryComponent</title>
<polygon fill="#ffffb3" stroke="black" points="654.02,-122 489.98,-122 489.98,-86 654.02,-86 654.02,-122"/>
<text text-anchor="middle" x="572" y="-99.8" font-family="Times,serif" font-size="14.00">LabelCategoryComponent</text>
</g>
<!-- LabelCategoryComponent&#45;&gt;AppModule -->
<g id="edge3" class="edge">
<title>LabelCategoryComponent&#45;&gt;AppModule</title>
<path fill="none" stroke="black" d="M509.28,-122.11C509.28,-122.11 509.28,-140.99 509.28,-140.99"/>
<polygon fill="black" stroke="black" points="505.78,-140.99 509.28,-150.99 512.78,-140.99 505.78,-140.99"/>
</g>
<!-- MainPageComponent -->
<g id="node4" class="node">
<title>MainPageComponent</title>
<polygon fill="#ffffb3" stroke="black" points="472.09,-122 333.91,-122 333.91,-86 472.09,-86 472.09,-122"/>
<text text-anchor="middle" x="403" y="-99.8" font-family="Times,serif" font-size="14.00">MainPageComponent</text>
</g>
<!-- MainPageComponent&#45;&gt;AppModule -->
<g id="edge4" class="edge">
<title>MainPageComponent&#45;&gt;AppModule</title>
<path fill="none" stroke="black" d="M458.61,-122.11C458.61,-122.11 458.61,-140.99 458.61,-140.99"/>
<polygon fill="black" stroke="black" points="455.11,-140.99 458.61,-150.99 462.11,-140.99 455.11,-140.99"/>
</g>
<!-- SearchBarComponent -->
<g id="node5" class="node">
<title>SearchBarComponent</title>
<polygon fill="#ffffb3" stroke="black" points="315.63,-122 176.37,-122 176.37,-86 315.63,-86 315.63,-122"/>
<text text-anchor="middle" x="246" y="-99.8" font-family="Times,serif" font-size="14.00">SearchBarComponent</text>
</g>
<!-- SearchBarComponent&#45;&gt;AppModule -->
<g id="edge5" class="edge">
<title>SearchBarComponent&#45;&gt;AppModule</title>
<path fill="none" stroke="black" d="M246,-122.02C246,-139.37 246,-163 246,-163 246,-163 435.3,-163 435.3,-163"/>
<polygon fill="black" stroke="black" points="435.3,-166.5 445.3,-163 435.3,-159.5 435.3,-166.5"/>
</g>
<!-- AppComponent  -->
<g id="node8" class="node">
<title>AppComponent </title>
<polygon fill="#80b1d3" stroke="black" points="541.44,-252 432.56,-252 432.56,-216 541.44,-216 541.44,-252"/>
<text text-anchor="middle" x="487" y="-229.8" font-family="Times,serif" font-size="14.00">AppComponent </text>
</g>
<!-- AppModule&#45;&gt;AppComponent  -->
<g id="edge7" class="edge">
<title>AppModule&#45;&gt;AppComponent </title>
<path fill="none" stroke="black" stroke-dasharray="1,5" d="M487,-187.11C487,-187.11 487,-205.99 487,-205.99"/>
<polygon fill="black" stroke="black" points="483.5,-205.99 487,-215.99 490.5,-205.99 483.5,-205.99"/>
</g>
<!-- AppRoutingModule -->
<g id="node7" class="node">
<title>AppRoutingModule</title>
<polygon fill="#8dd3c7" stroke="black" points="152.27,-122 149.27,-126 128.27,-126 125.27,-122 23.73,-122 23.73,-86 152.27,-86 152.27,-122"/>
<text text-anchor="middle" x="88" y="-99.8" font-family="Times,serif" font-size="14.00">AppRoutingModule</text>
</g>
<!-- AppRoutingModule&#45;&gt;AppModule -->
<g id="edge6" class="edge">
<title>AppRoutingModule&#45;&gt;AppModule</title>
<path fill="none" stroke="black" d="M88,-122.28C88,-143.32 88,-175 88,-175 88,-175 435.05,-175 435.05,-175"/>
<polygon fill="black" stroke="black" points="435.05,-178.5 445.05,-175 435.05,-171.5 435.05,-178.5"/>
</g>
</g>
</svg>
