<?xml version="1.0" encoding="UTF-8" standalone="no"?>
<!DOCTYPE svg PUBLIC "-//W3C//DTD SVG 1.1//EN"
 "http://www.w3.org/Graphics/SVG/1.1/DTD/svg11.dtd">
<!-- Generated by graphviz version 2.47.0 (20210316.0004)
 -->
<!-- Title: dependencies Pages: 1 -->
<svg width="969pt" height="284pt"
 viewBox="0.00 0.00 969.00 284.00" xmlns="http://www.w3.org/2000/svg" xmlns:xlink="http://www.w3.org/1999/xlink">
<g id="graph0" class="graph" transform="scale(1 1) rotate(0) translate(4 280)">
<title>dependencies</title>
<polygon fill="white" stroke="transparent" points="-4,4 -4,-280 965,-280 965,4 -4,4"/>
<text text-anchor="start" x="459.51" y="-42.4" font-family="Times-12" font-weight="bold" font-size="14.00">Legend</text>
<polygon fill="#ffffb3" stroke="transparent" points="246.5,-10 246.5,-30 266.5,-30 266.5,-10 246.5,-10"/>
<text text-anchor="start" x="270.13" y="-15.4" font-family="Times-12" font-size="14.00"> &#160;Declarations</text>
<polygon fill="#8dd3c7" stroke="transparent" points="359.5,-10 359.5,-30 379.5,-30 379.5,-10 359.5,-10"/>
<text text-anchor="start" x="383.23" y="-15.4" font-family="Times-12" font-size="14.00"> &#160;Module</text>
<polygon fill="#80b1d3" stroke="transparent" points="445.5,-10 445.5,-30 465.5,-30 465.5,-10 445.5,-10"/>
<text text-anchor="start" x="469.28" y="-15.4" font-family="Times-12" font-size="14.00"> &#160;Bootstrap</text>
<polygon fill="#fdb462" stroke="transparent" points="542.5,-10 542.5,-30 562.5,-30 562.5,-10 542.5,-10"/>
<text text-anchor="start" x="566.17" y="-15.4" font-family="Times-12" font-size="14.00"> &#160;Providers</text>
<polygon fill="#fb8072" stroke="transparent" points="638.5,-10 638.5,-30 658.5,-30 658.5,-10 638.5,-10"/>
<text text-anchor="start" x="662.23" y="-15.4" font-family="Times-12" font-size="14.00"> &#160;Exports</text>
<g id="clust1" class="cluster">
<title>cluster_AppModule</title>
<polygon fill="none" stroke="black" stroke-dasharray="1,5" points="8,-70 8,-268 953,-268 953,-70 8,-70"/>
</g>
<g id="clust8" class="cluster">
<title>cluster_AppModule_imports</title>
<polygon fill="none" stroke="black" points="801,-78 801,-130 945,-130 945,-78 801,-78"/>
</g>
<g id="clust2" class="cluster">
<title>cluster_AppModule_declarations</title>
<polygon fill="none" stroke="black" points="16,-78 16,-130 793,-130 793,-78 16,-78"/>
</g>
<g id="clust10" class="cluster">
<title>cluster_AppModule_bootstrap</title>
<polygon fill="none" stroke="black" points="443,-208 443,-260 567,-260 567,-208 443,-208"/>
</g>
<!-- AppComponent -->
<g id="node1" class="node">
<title>AppComponent</title>
<polygon fill="#ffffb3" stroke="black" points="784.94,-122 679.06,-122 679.06,-86 784.94,-86 784.94,-122"/>
<text text-anchor="middle" x="732" y="-99.8" font-family="Times,serif" font-size="14.00">AppComponent</text>
</g>
<!-- AppModule -->
<g id="node6" class="node">
<title>AppModule</title>
<polygon fill="#8dd3c7" stroke="black" points="546.66,-187 543.66,-191 522.66,-191 519.66,-187 463.34,-187 463.34,-151 546.66,-151 546.66,-187"/>
<text text-anchor="middle" x="505" y="-164.8" font-family="Times,serif" font-size="14.00">AppModule</text>
</g>
<!-- AppComponent&#45;&gt;AppModule -->
<g id="edge1" class="edge">
<title>AppComponent&#45;&gt;AppModule</title>
<path fill="none" stroke="black" d="M732,-122.02C732,-139.37 732,-163 732,-163 732,-163 556.9,-163 556.9,-163"/>
<polygon fill="black" stroke="black" points="556.9,-159.5 546.9,-163 556.9,-166.5 556.9,-159.5"/>
</g>
<!-- BookStoreComponent -->
<g id="node2" class="node">
<title>BookStoreComponent</title>
<polygon fill="#ffffb3" stroke="black" points="661.72,-122 520.28,-122 520.28,-86 661.72,-86 661.72,-122"/>
<text text-anchor="middle" x="591" y="-99.8" font-family="Times,serif" font-size="14.00">BookStoreComponent</text>
</g>
<!-- BookStoreComponent&#45;&gt;AppModule -->
<g id="edge2" class="edge">
<title>BookStoreComponent&#45;&gt;AppModule</title>
<path fill="none" stroke="black" d="M533.61,-122.11C533.61,-122.11 533.61,-140.99 533.61,-140.99"/>
<polygon fill="black" stroke="black" points="530.11,-140.99 533.61,-150.99 537.11,-140.99 530.11,-140.99"/>
</g>
<!-- LabelCategoryComponent -->
<g id="node3" class="node">
<title>LabelCategoryComponent</title>
<polygon fill="#ffffb3" stroke="black" points="502.02,-122 337.98,-122 337.98,-86 502.02,-86 502.02,-122"/>
<text text-anchor="middle" x="420" y="-99.8" font-family="Times,serif" font-size="14.00">LabelCategoryComponent</text>
</g>
<!-- LabelCategoryComponent&#45;&gt;AppModule -->
<g id="edge3" class="edge">
<title>LabelCategoryComponent&#45;&gt;AppModule</title>
<path fill="none" stroke="black" d="M482.72,-122.11C482.72,-122.11 482.72,-140.99 482.72,-140.99"/>
<polygon fill="black" stroke="black" points="479.22,-140.99 482.72,-150.99 486.22,-140.99 479.22,-140.99"/>
</g>
<!-- MainPageComponent -->
<g id="node4" class="node">
<title>MainPageComponent</title>
<polygon fill="#ffffb3" stroke="black" points="320.09,-122 181.91,-122 181.91,-86 320.09,-86 320.09,-122"/>
<text text-anchor="middle" x="251" y="-99.8" font-family="Times,serif" font-size="14.00">MainPageComponent</text>
</g>
<!-- MainPageComponent&#45;&gt;AppModule -->
<g id="edge4" class="edge">
<title>MainPageComponent&#45;&gt;AppModule</title>
<path fill="none" stroke="black" d="M251,-122.02C251,-139.37 251,-163 251,-163 251,-163 453.34,-163 453.34,-163"/>
<polygon fill="black" stroke="black" points="453.34,-166.5 463.34,-163 453.34,-159.5 453.34,-166.5"/>
</g>
<!-- SearchBarComponent -->
<g id="node5" class="node">
<title>SearchBarComponent</title>
<polygon fill="#ffffb3" stroke="black" points="163.63,-122 24.37,-122 24.37,-86 163.63,-86 163.63,-122"/>
<text text-anchor="middle" x="94" y="-99.8" font-family="Times,serif" font-size="14.00">SearchBarComponent</text>
</g>
<!-- SearchBarComponent&#45;&gt;AppModule -->
<g id="edge5" class="edge">
<title>SearchBarComponent&#45;&gt;AppModule</title>
<path fill="none" stroke="black" d="M94,-122.28C94,-143.32 94,-175 94,-175 94,-175 453.33,-175 453.33,-175"/>
<polygon fill="black" stroke="black" points="453.33,-178.5 463.33,-175 453.33,-171.5 453.33,-178.5"/>
</g>
<!-- AppComponent  -->
<g id="node8" class="node">
<title>AppComponent </title>
<polygon fill="#80b1d3" stroke="black" points="559.44,-252 450.56,-252 450.56,-216 559.44,-216 559.44,-252"/>
<text text-anchor="middle" x="505" y="-229.8" font-family="Times,serif" font-size="14.00">AppComponent </text>
</g>
<!-- AppModule&#45;&gt;AppComponent  -->
<g id="edge7" class="edge">
<title>AppModule&#45;&gt;AppComponent </title>
<path fill="none" stroke="black" stroke-dasharray="1,5" d="M505,-187.11C505,-187.11 505,-205.99 505,-205.99"/>
<polygon fill="black" stroke="black" points="501.5,-205.99 505,-215.99 508.5,-205.99 501.5,-205.99"/>
</g>
<!-- AppRoutingModule -->
<g id="node7" class="node">
<title>AppRoutingModule</title>
<polygon fill="#8dd3c7" stroke="black" points="937.27,-122 934.27,-126 913.27,-126 910.27,-122 808.73,-122 808.73,-86 937.27,-86 937.27,-122"/>
<text text-anchor="middle" x="873" y="-99.8" font-family="Times,serif" font-size="14.00">AppRoutingModule</text>
</g>
<!-- AppRoutingModule&#45;&gt;AppModule -->
<g id="edge6" class="edge">
<title>AppRoutingModule&#45;&gt;AppModule</title>
<path fill="none" stroke="black" d="M873,-122.28C873,-143.32 873,-175 873,-175 873,-175 556.86,-175 556.86,-175"/>
<polygon fill="black" stroke="black" points="556.86,-171.5 546.86,-175 556.86,-178.5 556.86,-171.5"/>
</g>
</g>
</svg>
